<svg width="29" height="35" viewBox="0 0 29 35" fill="none" xmlns="http://www.w3.org/2000/svg">
<path d="M12.192 32.8L12.5386 33.1605L12.5456 33.1536L12.192 32.8ZM2.208 32.8L1.85438 33.1536L1.86145 33.1604L2.208 32.8ZM2.208 1.648L2.55462 2.00848L2.56155 2.00155L2.208 1.648ZM12.192 1.648L11.8384 2.00162L11.8454 2.00842L12.192 1.648ZM13.44 12.544V13.044H13.94V12.544H13.44ZM8.88 12.544H8.38V13.044H8.88V12.544ZM8.88 19.36H9.38V18.86H8.88V19.36ZM7.008 19.36L6.50984 19.3171L6.46314 19.86H7.008V19.36ZM7.392 14.896V14.396H6.93316L6.89384 14.8531L7.392 14.896ZM13.44 14.896H13.94V14.396H13.44V14.896ZM12.94 29.536C12.94 30.7679 12.5631 31.7218 11.8384 32.4464L12.5456 33.1536C13.4849 32.2142 13.94 30.9921 13.94 29.536H12.94ZM11.8454 32.4396C11.1218 33.1354 10.1656 33.5 8.928 33.5V34.5C10.3784 34.5 11.5982 34.0646 12.5386 33.1604L11.8454 32.4396ZM8.928 33.5H5.472V34.5H8.928V33.5ZM5.472 33.5C4.2344 33.5 3.27817 33.1354 2.55455 32.4396L1.86145 33.1604C2.80183 34.0646 4.0216 34.5 5.472 34.5V33.5ZM2.56155 32.4464C1.83688 31.7218 1.46 30.7679 1.46 29.536H0.46C0.46 30.9921 0.915115 32.2142 1.85445 33.1536L2.56155 32.4464ZM1.46 29.536V4.864H0.46V29.536H1.46ZM1.46 4.864C1.46 3.63169 1.83684 2.69853 2.55455 2.00842L1.86145 1.28758C0.915164 2.19747 0.46 3.4083 0.46 4.864H1.46ZM2.56155 2.00155C3.28622 1.27688 4.24011 0.899998 5.472 0.899998V-0.100002C4.01589 -0.100002 2.79378 0.355114 1.85445 1.29445L2.56155 2.00155ZM5.472 0.899998H8.928V-0.100002H5.472V0.899998ZM8.928 0.899998C10.1599 0.899998 11.1138 1.27688 11.8384 2.00155L12.5456 1.29445C11.6062 0.355113 10.3841 -0.100002 8.928 -0.100002V0.899998ZM11.8454 2.00842C12.5632 2.69853 12.94 3.63169 12.94 4.864H13.94C13.94 3.4083 13.4848 2.19747 12.5386 1.28758L11.8454 2.00842ZM12.94 4.864V12.544H13.94V4.864H12.94ZM13.44 12.044H8.88V13.044H13.44V12.044ZM9.38 12.544V5.104H8.38V12.544H9.38ZM9.38 5.104C9.38 4.94692 9.34039 4.73728 9.17355 4.57044C9.00671 4.4036 8.79707 4.364 8.64 4.364V5.364C8.63983 5.364 8.61932 5.36415 8.58689 5.35334C8.55203 5.34172 8.50753 5.31863 8.46645 5.27755C8.42537 5.23647 8.40228 5.19196 8.39066 5.15711C8.37985 5.12468 8.38 5.10417 8.38 5.104H9.38ZM8.64 4.364H5.76V5.364H8.64V4.364ZM5.76 4.364C5.60293 4.364 5.39329 4.4036 5.22645 4.57044C5.05961 4.73728 5.02 4.94692 5.02 5.104H6.02C6.02 5.10417 6.02015 5.12468 6.00934 5.15711C5.99772 5.19196 5.97463 5.23647 5.93355 5.27755C5.89247 5.31863 5.84797 5.34172 5.81311 5.35334C5.78068 5.36415 5.76017 5.364 5.76 5.364V4.364ZM5.02 5.104V29.296H6.02V5.104H5.02ZM5.02 29.296C5.02 29.4531 5.05961 29.6627 5.22645 29.8296C5.39329 29.9964 5.60293 30.036 5.76 30.036V29.036C5.76017 29.036 5.78068 29.0358 5.81311 29.0467C5.84797 29.0583 5.89247 29.0814 5.93355 29.1224C5.97463 29.1635 5.99772 29.208 6.00934 29.2429C6.02015 29.2753 6.02 29.2958 6.02 29.296H5.02ZM5.76 30.036H8.64V29.036H5.76V30.036ZM8.64 30.036C8.79707 30.036 9.00671 29.9964 9.17355 29.8296C9.34039 29.6627 9.38 29.4531 9.38 29.296H8.38C8.38 29.2958 8.37985 29.2753 8.39066 29.2429C8.40228 29.208 8.42537 29.1635 8.46645 29.1224C8.50753 29.0814 8.55203 29.0583 8.58689 29.0467C8.61932 29.0358 8.63983 29.036 8.64 29.036V30.036ZM9.38 29.296V19.36H8.38V29.296H9.38ZM8.88 18.86H7.008V19.86H8.88V18.86ZM7.50616 19.4029L7.89016 14.9389L6.89384 14.8531L6.50984 19.3171L7.50616 19.4029ZM7.392 15.396H13.44V14.396H7.392V15.396ZM12.94 14.896V29.536H13.94V14.896H12.94ZM27.5426 32.992L27.8892 33.3525L27.8962 33.3456L27.5426 32.992ZM17.5586 32.992L17.205 33.3456L17.2121 33.3524L17.5586 32.992ZM17.5586 1.456L17.9052 1.81648L17.9122 1.80955L17.5586 1.456ZM27.5426 1.456L27.189 1.80962L27.1961 1.81642L27.5426 1.456ZM28.2906 29.728C28.2906 30.9599 27.9137 31.9138 27.1891 32.6384L27.8962 33.3456C28.8355 32.4062 29.2906 31.1841 29.2906 29.728H28.2906ZM27.1961 32.6316C26.4725 33.3274 25.5162 33.692 24.2786 33.692V34.692C25.729 34.692 26.9488 34.2566 27.8892 33.3524L27.1961 32.6316ZM24.2786 33.692H20.8226V34.692H24.2786V33.692ZM20.8226 33.692C19.585 33.692 18.6288 33.3274 17.9052 32.6316L17.2121 33.3524C18.1525 34.2566 19.3722 34.692 20.8226 34.692V33.692ZM17.9122 32.6384C17.1875 31.9138 16.8106 30.9599 16.8106 29.728H15.8106C15.8106 31.1841 16.2657 32.4062 17.2051 33.3456L17.9122 32.6384ZM16.8106 29.728V4.672H15.8106V29.728H16.8106ZM16.8106 4.672C16.8106 3.43969 17.1875 2.50653 17.9052 1.81642L17.2121 1.09558C16.2658 2.00547 15.8106 3.2163 15.8106 4.672H16.8106ZM17.9122 1.80955C18.6368 1.08488 19.5907 0.707997 20.8226 0.707997V-0.292003C19.3665 -0.292003 18.1444 0.163113 17.2051 1.10245L17.9122 1.80955ZM20.8226 0.707997H24.2786V-0.292003H20.8226V0.707997ZM24.2786 0.707997C25.5105 0.707997 26.4644 1.08488 27.1891 1.80955L27.8962 1.10245C26.9568 0.163113 25.7347 -0.292003 24.2786 -0.292003V0.707997ZM27.1961 1.81642C27.9138 2.50653 28.2906 3.43969 28.2906 4.672H29.2906C29.2906 3.2163 28.8355 2.00547 27.8892 1.09558L27.1961 1.81642ZM28.2906 4.672V29.728H29.2906V4.672H28.2906ZM21.1106 4.172C20.9536 4.172 20.7439 4.21161 20.5771 4.37845C20.4102 4.54529 20.3706 4.75493 20.3706 4.912H21.3706C21.3706 4.91217 21.3708 4.93268 21.36 4.96511C21.3483 4.99997 21.3253 5.04447 21.2842 5.08555C21.2431 5.12663 21.1986 5.14972 21.1637 5.16134C21.1313 5.17215 21.1108 5.172 21.1106 5.172V4.172ZM20.3706 4.912V29.488H21.3706V4.912H20.3706ZM20.3706 29.488C20.3706 29.6451 20.4102 29.8547 20.5771 30.0216C20.7439 30.1884 20.9536 30.228 21.1106 30.228V29.228C21.1108 29.228 21.1313 29.2278 21.1637 29.2387C21.1986 29.2503 21.2431 29.2734 21.2842 29.3144C21.3253 29.3555 21.3483 29.4 21.36 29.4349C21.3708 29.4673 21.3706 29.4878 21.3706 29.488H20.3706ZM21.1106 30.228H23.9906V29.228H21.1106V30.228ZM23.9906 30.228C24.1477 30.228 24.3573 30.1884 24.5242 30.0216C24.691 29.8547 24.7306 29.6451 24.7306 29.488H23.7306C23.7306 29.4878 23.7305 29.4673 23.7413 29.4349C23.7529 29.4 23.776 29.3555 23.8171 29.3144C23.8582 29.2734 23.9027 29.2503 23.9375 29.2387C23.9699 29.2278 23.9905 29.228 23.9906 29.228V30.228ZM24.7306 29.488V4.912H23.7306V29.488H24.7306ZM24.7306 4.912C24.7306 4.75493 24.691 4.54529 24.5242 4.37845C24.3573 4.21161 24.1477 4.172 23.9906 4.172V5.172C23.9905 5.172 23.9699 5.17215 23.9375 5.16134C23.9027 5.14972 23.8582 5.12663 23.8171 5.08555C23.776 5.04447 23.7529 4.99997 23.7413 4.96511C23.7305 4.93268 23.7306 4.91217 23.7306 4.912H24.7306ZM23.9906 4.172H21.1106V5.172H23.9906V4.172Z" fill="white"/>
</svg>
