<svg width="120" height="51" viewBox="0 0 120 51" fill="none" xmlns="http://www.w3.org/2000/svg">
<path d="M45 27.8V38.55C45 39.95 44.5667 41.0833 43.7 41.95C42.8333 42.7833 41.7 43.2 40.3 43.2H36.7C35.3 43.2 34.1667 42.7833 33.3 41.95C32.4333 41.0833 32 39.95 32 38.55V12.45C32 11.05 32.4333 9.93333 33.3 9.1C34.1667 8.23333 35.3 7.8 36.7 7.8H40.3C41.7 7.8 42.8333 8.23333 43.7 9.1C44.5667 9.93333 45 11.05 45 12.45V23.65L40.25 23.15V12.7C40.25 12.5333 40.1667 12.45 40 12.45H37C36.8333 12.45 36.75 12.5333 36.75 12.7V38.3C36.75 38.4667 36.8333 38.55 37 38.55H40C40.1667 38.55 40.25 38.4667 40.25 38.3V27.8H45ZM60.2344 38.55C60.2344 39.95 59.801 41.0833 58.9344 41.95C58.0677 42.7833 56.9344 43.2 55.5344 43.2H51.9344C50.5344 43.2 49.401 42.7833 48.5344 41.95C47.6677 41.0833 47.2344 39.95 47.2344 38.55V12.45C47.2344 11.05 47.6677 9.93333 48.5344 9.1C49.401 8.23333 50.5344 7.8 51.9344 7.8H55.5344C56.9344 7.8 58.0677 8.23333 58.9344 9.1C59.801 9.93333 60.2344 11.05 60.2344 12.45V38.55ZM52.2344 12.45C52.0677 12.45 51.9844 12.5333 51.9844 12.7V38.3C51.9844 38.4667 52.0677 38.55 52.2344 38.55H55.2344C55.401 38.55 55.4844 38.4667 55.4844 38.3V12.7C55.4844 12.5333 55.401 12.45 55.2344 12.45H52.2344ZM75.3129 38.35L74.9129 43H62.9629V12.65H62.2129L62.7129 8H67.7129V38.35H75.3129ZM89.5801 38.55C89.5801 39.95 89.1467 41.0833 88.2801 41.95C87.4134 42.7833 86.2801 43.2 84.8801 43.2H81.2801C79.8801 43.2 78.7467 42.7833 77.8801 41.95C77.0134 41.0833 76.5801 39.95 76.5801 38.55V12.45C76.5801 11.05 77.0134 9.93333 77.8801 9.1C78.7467 8.23333 79.8801 7.8 81.2801 7.8H84.8801C86.2801 7.8 87.4134 8.23333 88.2801 9.1C89.1467 9.93333 89.5801 11.05 89.5801 12.45V38.55ZM81.5801 12.45C81.4134 12.45 81.3301 12.5333 81.3301 12.7V38.3C81.3301 38.4667 81.4134 38.55 81.5801 38.55H84.5801C84.7467 38.55 84.8301 38.4667 84.8301 38.3V12.7C84.8301 12.5333 84.7467 12.45 84.5801 12.45H81.5801ZM91.0703 12.65L91.5703 8H99.4703C100.87 8 102.004 8.43333 102.87 9.3C103.737 10.1333 104.17 11.25 104.17 12.65V28.3C104.17 29.0333 104.02 29.7 103.72 30.3C103.42 30.8667 103.02 31.35 102.52 31.75L105.72 43H100.92L98.0703 32.95H96.5703V43H91.8203V12.65H91.0703ZM99.1703 12.65H96.5703V28.3H99.1703C99.337 28.3 99.4203 28.2167 99.4203 28.05V12.9C99.4203 12.7333 99.337 12.65 99.1703 12.65ZM110.969 33V38.3C110.969 38.4667 111.052 38.55 111.219 38.55H113.219C113.385 38.55 113.469 38.4667 113.469 38.3V29.3L109.519 27.55C109.219 27.45 108.802 27.2833 108.269 27.05C107.735 26.7833 107.252 26.4 106.819 25.9C106.419 25.4 106.219 24.7167 106.219 23.85V12.45C106.219 11.05 106.652 9.93333 107.519 9.1C108.385 8.23333 109.519 7.8 110.919 7.8H113.519C114.919 7.8 116.052 8.23333 116.919 9.1C117.785 9.93333 118.219 11.05 118.219 12.45V19.85L113.469 19.45V12.7C113.469 12.5333 113.385 12.45 113.219 12.45H111.219C111.052 12.45 110.969 12.5333 110.969 12.7V23.15L114.919 24.9C115.219 25.0333 115.635 25.2167 116.169 25.45C116.702 25.6833 117.169 26.05 117.569 26.55C118.002 27.05 118.219 27.7333 118.219 28.6V38.55C118.219 39.95 117.785 41.0833 116.919 41.95C116.052 42.7833 114.919 43.2 113.519 43.2H110.919C109.519 43.2 108.385 42.7833 107.519 41.95C106.652 41.0833 106.219 39.95 106.219 38.55V33H110.969Z" fill="url(#paint0_linear_2_6)"/>
<path d="M12.192 40.8L12.5386 41.1605L12.5456 41.1536L12.192 40.8ZM2.208 40.8L1.85438 41.1536L1.86145 41.1604L2.208 40.8ZM2.208 9.648L2.55462 10.0085L2.56155 10.0016L2.208 9.648ZM12.192 9.648L11.8384 10.0016L11.8454 10.0084L12.192 9.648ZM13.44 20.544V21.044H13.94V20.544H13.44ZM8.88 20.544H8.38V21.044H8.88V20.544ZM8.88 27.36H9.38V26.86H8.88V27.36ZM7.008 27.36L6.50984 27.3171L6.46314 27.86H7.008V27.36ZM7.392 22.896V22.396H6.93316L6.89384 22.8531L7.392 22.896ZM13.44 22.896H13.94V22.396H13.44V22.896ZM12.94 37.536C12.94 38.7679 12.5631 39.7218 11.8384 40.4464L12.5456 41.1536C13.4849 40.2142 13.94 38.9921 13.94 37.536H12.94ZM11.8454 40.4396C11.1218 41.1354 10.1656 41.5 8.928 41.5V42.5C10.3784 42.5 11.5982 42.0646 12.5386 41.1604L11.8454 40.4396ZM8.928 41.5H5.472V42.5H8.928V41.5ZM5.472 41.5C4.2344 41.5 3.27817 41.1354 2.55455 40.4396L1.86145 41.1604C2.80183 42.0646 4.0216 42.5 5.472 42.5V41.5ZM2.56155 40.4464C1.83688 39.7218 1.46 38.7679 1.46 37.536H0.46C0.46 38.9921 0.915115 40.2142 1.85445 41.1536L2.56155 40.4464ZM1.46 37.536V12.864H0.46V37.536H1.46ZM1.46 12.864C1.46 11.6317 1.83684 10.6985 2.55455 10.0084L1.86145 9.28758C0.915164 10.1975 0.46 11.4083 0.46 12.864H1.46ZM2.56155 10.0016C3.28622 9.27688 4.24011 8.9 5.472 8.9V7.9C4.01589 7.9 2.79378 8.35511 1.85445 9.29445L2.56155 10.0016ZM5.472 8.9H8.928V7.9H5.472V8.9ZM8.928 8.9C10.1599 8.9 11.1138 9.27688 11.8384 10.0016L12.5456 9.29445C11.6062 8.35511 10.3841 7.9 8.928 7.9V8.9ZM11.8454 10.0084C12.5632 10.6985 12.94 11.6317 12.94 12.864H13.94C13.94 11.4083 13.4848 10.1975 12.5386 9.28758L11.8454 10.0084ZM12.94 12.864V20.544H13.94V12.864H12.94ZM13.44 20.044H8.88V21.044H13.44V20.044ZM9.38 20.544V13.104H8.38V20.544H9.38ZM9.38 13.104C9.38 12.9469 9.34039 12.7373 9.17355 12.5704C9.00671 12.4036 8.79707 12.364 8.64 12.364V13.364C8.63983 13.364 8.61932 13.3641 8.58689 13.3533C8.55203 13.3417 8.50753 13.3186 8.46645 13.2776C8.42537 13.2365 8.40228 13.192 8.39066 13.1571C8.37985 13.1247 8.38 13.1042 8.38 13.104H9.38ZM8.64 12.364H5.76V13.364H8.64V12.364ZM5.76 12.364C5.60293 12.364 5.39329 12.4036 5.22645 12.5704C5.05961 12.7373 5.02 12.9469 5.02 13.104H6.02C6.02 13.1042 6.02015 13.1247 6.00934 13.1571C5.99772 13.192 5.97463 13.2365 5.93355 13.2776C5.89247 13.3186 5.84797 13.3417 5.81311 13.3533C5.78068 13.3641 5.76017 13.364 5.76 13.364V12.364ZM5.02 13.104V37.296H6.02V13.104H5.02ZM5.02 37.296C5.02 37.4531 5.05961 37.6627 5.22645 37.8296C5.39329 37.9964 5.60293 38.036 5.76 38.036V37.036C5.76017 37.036 5.78068 37.0358 5.81311 37.0467C5.84797 37.0583 5.89247 37.0814 5.93355 37.1224C5.97463 37.1635 5.99772 37.208 6.00934 37.2429C6.02015 37.2753 6.02 37.2958 6.02 37.296H5.02ZM5.76 38.036H8.64V37.036H5.76V38.036ZM8.64 38.036C8.79707 38.036 9.00671 37.9964 9.17355 37.8296C9.34039 37.6627 9.38 37.4531 9.38 37.296H8.38C8.38 37.2958 8.37985 37.2753 8.39066 37.2429C8.40228 37.208 8.42537 37.1635 8.46645 37.1224C8.50753 37.0814 8.55203 37.0583 8.58689 37.0467C8.61932 37.0358 8.63983 37.036 8.64 37.036V38.036ZM9.38 37.296V27.36H8.38V37.296H9.38ZM8.88 26.86H7.008V27.86H8.88V26.86ZM7.50616 27.4029L7.89016 22.9389L6.89384 22.8531L6.50984 27.3171L7.50616 27.4029ZM7.392 23.396H13.44V22.396H7.392V23.396ZM12.94 22.896V37.536H13.94V22.896H12.94ZM27.5426 40.992L27.8892 41.3525L27.8962 41.3456L27.5426 40.992ZM17.5586 40.992L17.205 41.3456L17.2121 41.3524L17.5586 40.992ZM17.5586 9.456L17.9052 9.81648L17.9122 9.80955L17.5586 9.456ZM27.5426 9.456L27.189 9.80962L27.1961 9.81642L27.5426 9.456ZM28.2906 37.728C28.2906 38.9599 27.9137 39.9138 27.1891 40.6384L27.8962 41.3456C28.8355 40.4062 29.2906 39.1841 29.2906 37.728H28.2906ZM27.1961 40.6316C26.4725 41.3274 25.5162 41.692 24.2786 41.692V42.692C25.729 42.692 26.9488 42.2566 27.8892 41.3524L27.1961 40.6316ZM24.2786 41.692H20.8226V42.692H24.2786V41.692ZM20.8226 41.692C19.585 41.692 18.6288 41.3274 17.9052 40.6316L17.2121 41.3524C18.1525 42.2566 19.3722 42.692 20.8226 42.692V41.692ZM17.9122 40.6384C17.1875 39.9138 16.8106 38.9599 16.8106 37.728H15.8106C15.8106 39.1841 16.2657 40.4062 17.2051 41.3456L17.9122 40.6384ZM16.8106 37.728V12.672H15.8106V37.728H16.8106ZM16.8106 12.672C16.8106 11.4397 17.1875 10.5065 17.9052 9.81642L17.2121 9.09558C16.2658 10.0055 15.8106 11.2163 15.8106 12.672H16.8106ZM17.9122 9.80955C18.6368 9.08488 19.5907 8.708 20.8226 8.708V7.708C19.3665 7.708 18.1444 8.16311 17.2051 9.10245L17.9122 9.80955ZM20.8226 8.708H24.2786V7.708H20.8226V8.708ZM24.2786 8.708C25.5105 8.708 26.4644 9.08488 27.1891 9.80955L27.8962 9.10245C26.9568 8.16311 25.7347 7.708 24.2786 7.708V8.708ZM27.1961 9.81642C27.9138 10.5065 28.2906 11.4397 28.2906 12.672H29.2906C29.2906 11.2163 28.8355 10.0055 27.8892 9.09558L27.1961 9.81642ZM28.2906 12.672V37.728H29.2906V12.672H28.2906ZM21.1106 12.172C20.9536 12.172 20.7439 12.2116 20.5771 12.3784C20.4102 12.5453 20.3706 12.7549 20.3706 12.912H21.3706C21.3706 12.9122 21.3708 12.9327 21.36 12.9651C21.3483 13 21.3253 13.0445 21.2842 13.0856C21.2431 13.1266 21.1986 13.1497 21.1637 13.1613C21.1313 13.1722 21.1108 13.172 21.1106 13.172V12.172ZM20.3706 12.912V37.488H21.3706V12.912H20.3706ZM20.3706 37.488C20.3706 37.6451 20.4102 37.8547 20.5771 38.0216C20.7439 38.1884 20.9536 38.228 21.1106 38.228V37.228C21.1108 37.228 21.1313 37.2278 21.1637 37.2387C21.1986 37.2503 21.2431 37.2734 21.2842 37.3144C21.3253 37.3555 21.3483 37.4 21.36 37.4349C21.3708 37.4673 21.3706 37.4878 21.3706 37.488H20.3706ZM21.1106 38.228H23.9906V37.228H21.1106V38.228ZM23.9906 38.228C24.1477 38.228 24.3573 38.1884 24.5242 38.0216C24.691 37.8547 24.7306 37.6451 24.7306 37.488H23.7306C23.7306 37.4878 23.7305 37.4673 23.7413 37.4349C23.7529 37.4 23.776 37.3555 23.8171 37.3144C23.8582 37.2734 23.9027 37.2503 23.9375 37.2387C23.9699 37.2278 23.9905 37.228 23.9906 37.228V38.228ZM24.7306 37.488V12.912H23.7306V37.488H24.7306ZM24.7306 12.912C24.7306 12.7549 24.691 12.5453 24.5242 12.3784C24.3573 12.2116 24.1477 12.172 23.9906 12.172V13.172C23.9905 13.172 23.9699 13.1722 23.9375 13.1613C23.9027 13.1497 23.8582 13.1266 23.8171 13.0856C23.776 13.0445 23.7529 13 23.7413 12.9651C23.7305 12.9327 23.7306 12.9122 23.7306 12.912H24.7306ZM23.9906 12.172H21.1106V13.172H23.9906V12.172Z" fill="white"/>
<defs>
<linearGradient id="paint0_linear_2_6" x1="75.5" y1="0" x2="75.5" y2="51" gradientUnits="userSpaceOnUse">
<stop stop-color="#FFE600" stop-opacity="0.55"/>
<stop offset="0.276042" stop-color="#00AC78"/>
<stop offset="0.536458" stop-color="#067ED4"/>
<stop offset="0.864583" stop-color="#BD00FF"/>
</linearGradient>
</defs>
</svg>
