<svg width="438" height="659" viewBox="0 0 438 659" fill="none" xmlns="http://www.w3.org/2000/svg">
<path d="M80.7046 534.343C80.7046 533.123 80.7046 531.902 80.7046 531.902C80.7046 530.682 80.7046 530.682 80.7046 531.902C81.9274 531.902 81.9274 533.123 81.9274 534.343H80.7046ZM14.6736 397.651C15.8964 398.871 15.8964 398.871 15.8964 397.651C15.8964 396.43 13.4508 391.548 12.228 385.446C9.78237 374.462 8.55958 373.241 9.78237 365.919C9.78237 359.816 9.78237 356.155 11.0052 352.493C12.228 347.612 15.8964 339.068 15.8964 340.289L13.4508 346.391C11.0052 354.934 9.78237 362.257 11.0052 363.478C12.228 364.698 12.228 364.698 12.228 363.478C12.228 362.257 13.4508 363.478 13.4508 365.919C13.4508 369.58 13.4508 373.241 14.6736 376.903C17.1192 383.005 22.0103 391.548 23.2331 392.769C24.4559 392.769 28.1243 395.21 31.7927 397.651C39.1295 403.753 44.0207 406.194 45.2435 404.974C46.4663 404.974 48.9119 393.989 48.9119 391.548C48.9119 389.108 44.0207 393.989 42.7979 396.43V395.21C42.7979 393.989 42.7979 391.548 44.0207 389.108C45.2435 386.667 46.4663 383.005 46.4663 381.785C47.6891 379.344 48.9119 373.241 51.3575 368.36C56.2486 356.155 56.2486 352.493 53.8031 350.053L52.5802 348.832L51.3575 350.053C50.1347 351.273 48.9119 353.714 48.9119 354.934C48.9119 356.155 47.6891 356.155 47.6891 357.375C46.4663 358.596 47.6891 350.053 50.1347 343.95C53.803 337.848 53.803 334.186 52.5802 325.643C52.5802 321.982 52.5803 321.982 53.8031 323.202C55.0258 325.643 55.0258 325.643 55.0258 320.761V312.218C56.2486 309.777 56.2486 307.336 55.0258 307.336L52.5802 309.777C48.9119 312.218 44.0207 314.659 44.0207 313.438H41.5751C39.1295 314.659 31.7927 315.879 30.5699 314.659C30.5699 314.659 31.7927 314.659 33.0155 313.438C35.4611 313.438 37.9067 312.218 42.7979 308.557C50.1347 302.454 51.3575 298.793 52.5802 287.809C52.5802 284.147 53.8031 280.486 53.8031 279.265V278.045C51.3575 278.045 50.1347 282.927 50.1347 287.809C50.1347 293.911 48.9119 295.131 47.6891 289.029C47.6891 285.368 47.6891 282.927 50.1347 276.824C51.3575 270.722 51.3575 269.502 51.3575 263.399C51.3575 260.958 50.1347 257.297 50.1347 257.297L47.6891 247.533C46.4663 237.769 45.2435 234.108 42.7979 228.006C41.5751 224.344 41.5751 221.903 41.5751 213.36C41.5751 207.258 42.7979 202.376 42.7979 199.935C45.2435 196.274 48.9119 188.951 52.5802 184.069C55.0258 181.628 55.0258 180.407 53.8031 179.187C52.5803 177.966 52.5803 177.966 53.8031 177.966C56.2486 180.407 56.2486 179.187 55.0258 175.526V169.423C56.2486 171.864 56.2486 174.305 57.4714 174.305C58.6942 176.746 58.6942 166.982 58.6942 163.321C57.4714 160.88 57.4714 159.659 57.4714 158.439C58.6942 158.439 58.6942 157.219 58.6942 155.998V153.557C59.917 152.337 59.917 152.337 58.6942 152.337C57.4714 153.557 56.2486 152.337 55.0258 149.896C55.0258 147.455 53.8031 146.234 53.8031 146.234C53.8031 146.234 52.5803 146.234 51.3575 145.014C50.1347 143.793 48.9119 143.793 47.6891 143.793C45.2435 143.793 41.5751 147.455 40.3523 149.896C40.3523 151.116 39.1295 153.557 37.9067 153.557C35.4611 155.998 35.4611 158.439 37.9067 164.541V169.423C37.9067 170.644 36.6839 168.203 36.6839 166.982C35.4611 163.321 34.2383 160.88 34.2383 157.219C34.2383 153.557 35.4611 151.116 37.9067 146.234C40.3523 141.352 42.7979 137.691 45.2435 135.25C47.6891 132.809 48.9119 130.368 48.9119 130.368C47.6891 130.368 46.4663 131.589 46.4663 131.589L45.2435 132.809C44.0207 132.809 46.4663 130.368 50.1347 127.927C57.4714 124.266 63.5854 115.723 63.5854 109.62C63.5854 107.179 64.8082 104.738 64.8082 104.738L67.2538 94.9747C69.6994 85.2109 69.6994 64.4629 67.2538 55.9197C67.2538 53.4787 66.031 48.5968 66.031 44.9354C64.8082 42.4945 64.8082 40.0536 64.8082 38.8331C63.5854 37.6126 63.5854 36.3922 64.8082 37.6126L67.2538 43.7149C68.4766 47.3764 69.6994 52.2582 70.9222 54.6992C72.145 57.1401 73.3678 60.8015 73.3678 63.2424C74.5906 69.3448 75.8134 73.0062 77.0362 74.2267C78.259 74.2267 79.4818 74.2267 80.7046 73.0062C81.9274 71.7857 84.373 64.4629 85.5958 58.3606C85.5958 53.4787 86.8186 52.2582 86.8186 57.1401L88.0413 59.5811L89.2641 55.9197C89.2641 53.4787 91.7097 51.0378 91.7097 49.8173C92.9325 48.5968 94.1553 46.1559 94.1553 44.9354C94.1553 43.7149 96.6009 40.0536 99.0465 36.3922C102.715 29.0693 106.383 19.3056 106.383 11.9828L107.606 5.88045V9.54184C108.829 11.9828 108.829 15.6442 107.606 20.5261C106.383 27.8489 106.383 29.0693 107.606 25.4079L108.829 21.7465V25.4079C107.606 26.6284 107.606 27.8489 107.606 29.0693C107.606 30.2898 108.829 27.8489 111.274 25.4079C116.166 20.5261 118.611 18.0851 133.285 8.32139C150.404 -3.88332 150.404 -2.66283 135.73 11.9828C121.057 25.4079 121.057 25.4079 116.166 35.1717C113.72 40.0536 110.052 46.1559 110.052 48.5968C107.606 54.6992 107.606 62.022 110.052 74.2267C110.052 76.6676 110.052 76.6676 108.829 74.2267L107.606 71.7857V74.2267C106.383 76.6676 106.383 79.1085 105.16 80.329V82.7699C106.383 82.7699 106.383 82.7699 106.383 82.7699C106.383 85.2109 102.715 98.636 100.269 105.959C99.0465 110.841 96.6009 115.723 96.6009 118.164C95.3781 127.927 95.3781 135.25 95.3781 147.455C95.3781 158.439 95.3781 160.88 96.6009 164.541C101.492 177.966 102.715 186.51 100.269 196.274C99.0465 198.714 99.0465 201.155 99.0465 202.376L103.938 197.494C106.383 195.053 110.052 191.392 112.497 190.171L116.166 187.73L112.497 191.392C106.383 197.494 101.492 209.699 97.8237 221.903C94.1553 235.328 92.9325 243.872 94.1553 251.195C94.1553 253.636 95.3781 257.297 95.3781 258.517C95.3781 259.738 97.8237 274.383 101.492 289.029C102.715 296.352 105.161 302.454 107.606 304.895C110.052 308.557 111.274 308.557 108.829 308.557L114.943 315.879C116.166 315.879 118.611 317.1 119.834 318.32C118.611 319.541 116.166 319.541 113.72 317.1C107.606 314.659 107.606 314.659 108.829 315.879C108.829 317.1 108.829 317.1 107.606 315.879C106.383 314.659 105.161 313.438 102.715 312.218L100.269 309.777L99.0465 312.218C97.8237 315.879 99.0465 319.541 100.269 325.643C102.715 331.745 101.492 334.186 100.269 329.305C97.8237 323.202 96.6009 321.982 95.3781 325.643C94.1553 326.864 92.9325 332.966 94.1553 332.966C94.1553 332.966 95.3781 331.746 95.3781 330.525V329.305C96.6009 329.305 96.6009 329.305 96.6009 330.525C95.3781 335.407 92.9325 346.391 92.9325 348.832C92.9325 352.493 91.7097 357.375 90.4869 357.375V356.155C90.4869 353.714 89.2641 354.934 88.0413 357.375C86.8186 359.816 86.8186 373.241 88.0413 379.344C90.4869 389.108 94.1553 396.43 97.8237 401.312C102.715 406.194 101.492 406.194 96.6009 403.753C94.1553 402.533 92.9325 402.533 92.9325 402.533C91.7097 402.533 92.9325 406.194 95.3781 411.076C96.6009 413.517 96.6009 415.958 96.6009 415.958C96.6009 417.178 97.8237 418.399 97.8237 420.84C99.0465 424.501 97.8237 423.281 95.3781 419.619C94.1553 414.737 91.7097 413.517 91.7097 415.958C91.7097 418.399 95.3781 428.163 97.8237 429.383C99.0465 430.603 100.269 431.824 102.715 431.824H105.16C105.16 433.044 101.492 434.265 100.269 434.265H99.0465C99.0465 435.485 100.269 440.367 102.715 445.249C103.938 447.69 103.938 448.91 103.938 448.91L101.492 445.249C99.0465 440.367 94.1553 436.706 92.9325 437.926C90.4869 439.147 94.1553 447.69 100.269 455.013C103.938 459.895 105.161 459.895 108.829 455.013C113.72 448.91 114.943 444.029 114.943 428.163V413.517C114.943 414.737 116.166 415.958 117.388 418.399C118.611 423.281 119.834 423.281 118.611 418.399C118.611 413.517 118.611 413.517 119.834 414.737C121.057 415.958 121.057 415.958 121.057 413.517C121.057 412.296 122.28 404.974 122.28 396.43C125.948 354.934 125.948 346.391 121.057 335.407C121.057 331.745 119.834 329.305 119.834 329.305C119.834 328.084 122.28 332.966 123.502 336.627C123.502 337.848 124.725 337.848 124.725 337.848C125.948 337.848 127.171 340.289 128.394 343.95C129.616 346.391 129.616 350.053 130.839 350.053C130.839 350.053 130.839 347.612 132.062 345.171C132.062 336.627 135.73 324.423 138.176 317.1C140.622 310.998 147.958 297.572 150.404 295.131C151.627 293.911 151.627 295.131 149.181 298.793C147.958 301.234 147.958 302.454 147.958 302.454C149.181 302.454 152.85 295.131 158.964 282.927C165.078 273.163 165.078 270.722 166.3 262.179C168.746 251.195 168.746 248.754 166.3 232.888C165.078 221.903 165.078 219.462 162.632 213.36L155.295 195.053C155.295 193.833 156.518 196.274 157.741 199.935C160.186 203.596 161.409 207.258 162.632 208.478C165.078 212.14 172.414 232.888 172.414 237.769C172.414 241.431 173.637 243.872 173.637 243.872C173.637 243.872 174.86 241.431 174.86 238.99C174.86 234.108 174.86 234.108 176.083 236.549C177.305 238.99 176.083 249.974 174.86 253.636C173.637 256.076 173.637 263.399 173.637 270.722C172.414 282.927 172.414 289.029 169.969 293.911C168.746 296.352 171.192 295.131 173.637 290.25C177.305 285.368 178.528 284.147 176.083 289.029L174.86 291.47L177.305 290.25C177.305 289.029 179.751 287.809 180.974 287.809C184.642 285.368 182.197 287.809 174.86 295.131L167.523 302.454L166.3 308.557C165.078 312.218 165.078 315.879 163.855 317.1V315.879C163.855 312.218 162.632 312.218 160.186 315.879C157.741 318.32 156.518 320.761 155.295 328.084C154.072 334.186 154.072 334.186 155.295 332.966C156.518 331.746 156.518 331.745 155.295 334.186C152.85 340.289 151.627 345.171 151.627 356.155C150.404 369.58 151.627 374.462 156.518 381.785C160.186 387.887 162.632 390.328 168.746 393.989C172.414 397.651 172.414 398.871 168.746 396.43C165.078 395.21 167.523 397.651 173.637 401.312C182.197 407.415 195.647 412.296 201.761 411.076C206.653 411.076 205.43 412.296 200.539 412.296C196.87 413.517 194.425 413.517 190.756 412.296C183.419 411.076 174.86 409.855 172.414 408.635C168.746 407.415 167.523 407.415 169.969 408.635C171.192 409.855 171.192 409.855 168.746 409.855C167.523 408.635 166.3 408.635 165.078 408.635C162.632 407.415 161.409 409.856 160.186 415.958C158.964 417.178 158.964 419.619 158.964 420.84C157.741 422.06 157.741 422.06 160.186 420.84C160.186 419.619 161.409 419.619 161.409 419.619C161.409 420.84 162.632 418.399 165.078 417.178C167.523 414.737 169.969 412.296 171.192 412.296C172.414 411.076 172.414 412.296 169.969 413.517C166.3 417.178 160.186 424.501 158.964 428.163C156.518 433.044 152.85 446.47 151.627 451.351C150.404 457.454 147.958 472.099 146.736 487.965C146.736 494.068 145.513 498.95 145.513 500.17C145.513 500.17 146.736 501.391 147.958 501.391C150.404 501.391 152.85 500.17 154.072 500.17C155.295 500.17 155.295 500.17 154.072 501.391C152.85 501.391 152.85 502.611 152.85 502.611C155.295 502.611 163.855 497.729 166.3 495.288L168.746 492.847L166.3 496.509C161.409 501.391 154.072 507.493 149.181 508.713C144.29 509.934 143.067 511.154 147.958 511.154C150.404 509.934 150.404 511.154 147.958 512.375H145.513L147.958 514.816C150.404 518.477 168.746 530.682 173.637 533.123C176.083 533.123 179.751 534.343 182.197 535.564C184.642 535.564 187.088 536.784 188.311 536.784C189.533 538.005 191.979 538.005 193.202 538.005C195.647 538.005 200.539 539.225 200.539 540.446C199.316 540.446 180.974 539.225 177.305 538.005C172.414 536.784 160.186 534.343 155.295 534.343H152.85V539.225L151.627 548.989L150.404 555.091V547.768C150.404 535.564 149.181 531.902 147.958 530.682C143.067 529.461 134.508 527.02 133.285 528.241C129.616 529.461 128.394 533.123 128.394 542.887C128.394 546.548 128.394 555.091 127.171 559.973L125.948 580.721C125.948 600.249 125.948 631.981 124.725 628.319C124.725 625.878 123.502 605.13 123.502 581.942C123.502 542.887 123.502 539.225 122.28 536.784C119.834 534.343 118.611 534.343 117.388 540.446L116.166 545.327V538.005C114.943 539.225 111.274 546.548 110.052 550.209C108.829 551.43 107.606 555.091 105.16 556.312C102.715 559.973 102.715 559.973 103.938 557.532C106.383 553.871 107.606 550.209 107.606 548.989C107.606 547.768 107.606 547.768 106.383 548.989C105.161 551.43 105.161 550.209 106.383 546.548C107.606 545.327 107.606 542.887 107.606 541.666V538.005L106.383 541.666C105.161 542.887 101.492 546.548 99.0465 550.209C95.3781 552.65 92.9325 556.312 92.9325 556.312C92.9325 558.753 85.5958 570.957 83.1502 573.398L79.4818 577.06L81.9274 573.398C84.373 570.957 85.5958 568.516 85.5958 568.516C85.5958 567.296 75.8134 572.178 74.5906 573.398C73.3678 574.619 72.145 575.839 72.145 577.06C69.6994 580.721 64.8082 586.823 64.8082 585.603C63.5854 585.603 64.8082 584.382 64.8082 583.162C66.031 581.942 66.031 579.501 64.8082 579.501L55.0258 586.823C51.3575 589.264 48.9119 590.485 47.6891 590.485L48.9119 589.264C53.803 585.603 47.6891 586.823 37.9067 591.705C31.7927 592.926 22.0103 595.367 14.6736 595.367H11.0052L14.6736 594.146C31.7927 591.705 53.803 581.942 61.1398 573.398C63.5854 569.737 63.5854 568.516 62.3626 569.737C62.3626 569.737 62.3626 568.516 64.8082 567.296C66.031 564.855 68.4766 562.414 70.9222 559.973L75.8134 551.43C78.259 548.989 79.4818 546.548 79.4818 545.327C79.4818 544.107 78.259 544.107 77.0362 545.327C75.8134 546.548 75.8134 546.548 75.8134 545.327C75.8134 544.107 74.5906 545.327 72.145 546.548C67.2538 551.43 66.031 551.43 69.6994 547.768C70.9222 546.548 74.5906 542.887 77.0362 541.666L83.1502 535.564C85.5958 531.902 88.0413 523.359 88.0413 518.477C88.0413 516.036 89.2641 513.595 89.2641 513.595C89.2641 509.934 88.0413 511.154 86.8186 516.036L84.373 519.698L85.5958 517.257C85.5958 514.816 86.8186 511.154 86.8186 509.934C89.2641 502.611 89.2641 501.391 86.8186 500.17C85.5958 500.17 85.5958 500.17 85.5958 498.95C86.8186 497.729 83.1502 492.847 79.4818 490.406C75.8134 489.186 69.6994 483.084 68.4766 478.202C66.031 473.32 66.031 470.879 68.4766 474.54C69.6994 476.981 74.5906 481.863 75.8134 481.863C75.8134 481.863 69.6994 465.997 67.2538 461.115C64.8082 456.233 63.5854 453.792 61.1398 452.572C59.917 451.351 59.917 452.572 59.917 453.792C61.1398 453.792 62.3626 459.895 63.5854 465.997L66.031 476.981C66.031 478.202 67.2538 483.084 69.6994 489.186L74.5906 506.272C75.8134 509.934 77.0362 513.595 77.0362 513.595C77.0362 513.595 68.4766 491.627 64.8082 479.422C62.3626 474.54 61.1398 469.658 59.917 468.438L58.6942 465.997V468.438C58.6942 473.32 57.4714 470.879 56.2486 464.777C56.2486 461.115 55.0258 455.013 53.8031 452.572L51.3575 446.47L50.1347 458.674C48.9119 468.438 47.6891 474.54 46.4663 474.54C46.4663 474.54 46.4663 472.099 47.6891 469.658C47.6891 463.556 47.6891 453.792 46.4663 448.91C45.2435 442.808 45.2435 442.808 42.7979 444.029C41.5751 445.249 41.5751 445.249 42.7979 442.808C42.7979 440.367 42.7979 439.147 41.5751 435.485C40.3523 429.383 37.9067 428.163 34.2383 428.163H31.7927C33.0155 426.942 34.2383 426.942 34.2383 426.942C35.4611 426.942 35.4611 425.722 35.4611 425.722C35.4611 424.501 29.3471 418.399 28.1243 418.399C28.1243 418.399 23.2331 411.076 23.2331 409.855L26.9015 413.517C29.3471 415.958 30.5699 417.178 31.7927 417.178C31.7927 417.178 30.5699 414.737 26.9015 411.076C23.2331 406.194 13.4508 400.092 9.78237 400.092C8.55958 400.092 0 397.651 0 396.43L14.6736 397.651ZM47.6891 202.376C46.4663 208.478 46.4663 212.14 47.6891 219.462C50.1347 228.006 51.3575 229.226 50.1347 223.124C50.1347 217.021 51.3575 215.801 51.3575 221.903C52.5803 225.565 55.0258 232.888 56.2486 234.108C57.4714 236.549 58.6942 235.328 58.6942 234.108C59.917 232.888 58.6942 225.565 57.4714 226.785C57.4714 226.785 57.4714 228.006 56.2486 229.226V226.785C57.4714 217.021 57.4714 206.037 57.4714 204.817C56.2486 202.376 55.0258 206.037 55.0258 209.699V213.36C53.803 209.699 53.803 206.037 56.2486 202.376C57.4714 197.494 57.4714 187.73 56.2486 185.289C56.2486 184.069 55.0258 184.069 53.8031 186.51C51.3575 190.171 48.9119 198.714 47.6891 202.376ZM48.9119 402.533C48.9119 402.533 50.1347 401.312 50.1347 400.092C51.3575 397.651 51.3575 396.43 50.1347 397.651C48.9119 398.871 47.6891 402.533 48.9119 402.533ZM53.8031 342.73C55.0258 342.73 55.0258 341.509 55.0258 341.509C55.0258 340.289 55.0258 340.289 53.8031 341.509C52.5803 342.73 52.5803 343.95 53.8031 342.73ZM59.917 154.778C58.6942 155.998 59.917 158.439 61.1398 158.439C62.3626 158.439 62.3626 157.219 62.3626 155.998C62.3626 153.557 59.917 152.337 59.917 154.778ZM59.917 125.486C61.1398 125.486 61.1398 124.266 62.3626 121.825C64.8082 118.164 66.031 114.502 64.8082 115.723C63.5854 116.943 59.917 125.486 59.917 125.486ZM69.6994 578.28C69.6994 579.501 69.6994 578.28 70.9222 578.28C70.9222 577.06 72.145 575.839 72.145 575.839C72.145 574.619 70.9222 575.839 70.9222 575.839C69.6994 577.06 69.6994 578.28 69.6994 578.28ZM74.5906 473.32C74.5906 473.32 74.5906 474.54 75.8134 474.54C75.8134 473.32 75.8134 473.32 74.5906 472.099C74.5906 470.879 73.3678 470.879 74.5906 473.32ZM88.0413 215.801C88.0413 217.021 88.0414 217.021 89.2641 217.021V215.801H88.0413ZM88.0413 184.069C88.0413 184.069 88.0414 185.289 89.2641 185.289V182.848L88.0413 184.069ZM90.4869 214.581C90.4869 217.021 91.7097 217.021 92.9325 214.581C96.6009 209.699 97.8237 198.714 96.6009 190.171C96.6009 187.73 95.3781 185.289 95.3781 185.289C94.1553 185.289 92.9325 190.171 92.9325 195.053C92.9325 199.935 91.7097 201.155 90.4869 202.376C89.2641 204.817 89.2641 209.699 90.4869 214.581ZM91.7097 180.407C90.4869 184.069 90.4869 185.289 91.7097 184.069C92.9325 182.848 92.9325 182.848 94.1553 182.848V180.407C94.1553 176.746 92.9325 176.746 91.7097 180.407ZM97.8237 96.1951C97.8237 94.9746 99.0465 93.7542 99.0465 91.3132C100.269 90.0928 102.715 85.2109 103.938 79.1085L107.606 70.5653L106.383 64.4629C106.383 60.8015 105.16 58.3606 105.16 59.5811C102.715 62.022 99.0465 73.0062 99.0465 76.6676C99.0465 79.1085 99.0465 81.5495 97.8237 82.7699C97.8237 83.9904 97.8237 85.2109 99.0465 85.2109C99.0465 85.2109 99.0465 86.4314 97.8237 87.6518C96.6009 91.3132 95.3781 97.4156 97.8237 96.1951ZM107.606 462.336C108.829 463.556 108.829 462.336 108.829 461.115H107.606C107.606 461.115 107.606 461.115 107.606 462.336ZM145.513 452.572C144.29 457.454 145.513 456.233 146.736 451.351C147.958 448.91 149.181 442.808 150.404 437.926C151.627 434.265 152.85 428.162 154.072 426.942C155.295 422.06 157.741 412.296 156.518 411.076C155.295 408.635 150.404 412.296 151.627 415.958C151.627 417.178 151.627 418.399 150.404 418.399C149.181 417.178 149.181 419.619 147.958 425.722C146.736 444.029 145.513 450.131 145.513 452.572ZM155.295 408.635C156.518 408.635 156.518 408.635 156.518 408.635C156.518 407.415 156.518 407.415 155.295 407.415V408.635Z" fill="white"/>
<path d="M241.13 652.729C242.353 651.508 242.353 651.508 242.353 655.17C242.353 660.051 242.353 660.052 241.13 656.39V652.729ZM93.1714 154.778C100.508 170.644 106.622 180.407 117.627 191.392C124.964 198.714 135.969 206.037 135.969 204.817C135.969 203.596 134.746 202.376 133.524 201.155C128.632 196.274 131.078 196.274 137.192 202.376C143.306 207.258 151.866 212.14 159.202 213.36C173.876 218.242 182.436 219.462 182.436 219.462V218.242C181.213 215.801 177.544 213.36 170.208 210.919C164.094 208.478 160.425 206.037 164.094 207.258C165.316 208.478 168.985 208.478 172.653 209.699L181.213 212.14C182.435 213.36 181.213 213.36 181.213 212.14C181.213 210.919 181.213 210.919 190.995 214.581C198.332 218.242 200.777 218.242 205.669 215.801C208.114 214.581 208.114 214.581 208.114 215.801C208.114 217.021 208.114 217.021 209.337 215.801C210.56 214.581 208.114 213.36 205.669 214.581C204.446 215.801 202 215.801 202 215.801C199.555 215.801 199.555 215.801 202 214.581C206.891 213.36 208.114 212.14 208.114 208.478C208.114 207.258 208.114 206.037 209.337 206.037C210.56 207.258 209.337 202.376 208.114 197.494C206.891 191.392 203.223 186.51 199.555 182.848L197.109 180.407C198.332 180.407 202 184.069 205.669 186.51C208.114 190.171 211.783 191.392 211.783 191.392C213.005 190.171 214.228 186.51 214.228 180.407C214.228 174.305 214.228 171.864 213.005 171.864C211.783 171.864 210.56 176.746 210.56 181.628C210.56 184.069 210.56 184.069 209.337 184.069V179.187C209.337 175.526 208.114 174.305 208.114 174.305C206.891 174.305 205.669 174.305 206.891 169.423C208.114 166.982 206.891 165.762 205.669 168.203C204.446 169.423 199.555 173.085 198.332 171.864L199.555 170.644C200.777 170.644 204.446 165.762 205.669 163.321C206.891 159.659 206.891 152.337 204.446 147.455C204.446 145.014 202 141.352 199.555 137.691C195.886 132.809 193.441 126.707 193.441 126.707C194.663 126.707 195.886 129.148 198.332 131.589C200.777 134.03 202 136.471 203.223 135.25L208.114 137.691C210.56 138.911 211.783 138.911 213.005 137.691C214.228 135.25 213.005 134.03 211.783 136.471C209.337 137.691 209.337 136.471 210.56 135.25C213.005 132.809 211.783 127.927 210.56 125.486C209.337 124.266 208.114 121.825 205.669 119.384C202 113.282 200.777 112.061 204.446 115.723L208.114 118.164C209.337 118.164 208.114 113.282 206.891 113.282V110.841C206.891 105.959 197.109 83.9904 193.441 80.329C189.772 77.8881 189.772 77.8881 192.218 82.7699L194.663 86.4314C194.663 86.4314 190.995 82.7699 187.327 76.6676C178.767 65.6834 176.322 62.022 175.099 62.022V71.7857C176.322 75.4472 176.322 85.2109 176.322 91.3132V93.7542C173.876 80.329 173.876 73.0062 171.43 65.6834C170.208 60.8015 170.208 59.581 167.762 58.3606C166.539 57.1401 165.316 57.1401 167.762 57.1401C170.208 58.3606 168.985 57.1401 166.539 54.6992C161.648 52.2582 161.648 52.2582 162.871 54.6992C164.094 57.1401 161.648 57.1401 160.425 53.4787C157.98 49.8173 156.757 48.5968 144.529 42.4945C138.415 38.8331 132.301 36.3922 127.41 35.1717C118.85 32.7307 120.073 31.5103 129.855 33.9512C143.306 36.3922 183.658 54.6992 192.218 63.2424L199.555 69.3448C202 70.5653 206.891 75.4472 211.783 80.329C219.119 88.8723 228.902 96.1951 228.902 94.9747C230.125 93.7542 226.456 88.8723 224.011 87.6518L219.119 80.329L215.451 76.6676C214.228 74.2267 197.109 58.3606 195.886 58.3606V60.8015L199.555 64.4629C202 69.3448 199.555 66.9039 194.663 60.8015C189.772 54.6992 184.881 49.8173 181.213 47.3764C179.99 47.3764 175.099 44.9354 171.43 42.4945C164.094 37.6126 161.648 35.1717 156.757 33.9512L151.866 32.7307C150.643 31.5103 151.866 31.5103 157.98 32.7307C167.762 35.1717 171.43 36.3922 178.767 40.0536C184.881 43.7149 211.783 54.6992 211.783 53.4787C213.005 53.4787 210.56 51.0378 208.114 48.5968C205.669 47.3764 204.446 46.1559 204.446 44.9354C205.669 44.9354 211.783 48.5968 216.674 53.4787C219.119 55.9197 230.125 63.2424 235.016 66.9039C236.239 66.9039 236.239 66.9039 235.016 63.2424C235.016 60.8015 235.016 60.8015 236.239 60.8015V59.5811C235.016 57.1401 235.016 48.5968 235.016 47.3764C235.016 46.1559 236.239 48.5968 236.239 51.0378C237.461 53.4787 238.684 58.3606 241.13 63.2424C246.021 74.2267 254.58 81.5495 265.586 88.8723L269.254 91.3132L268.031 88.8723C265.586 85.2109 265.586 82.7699 268.031 86.4314C269.254 90.0928 275.368 93.7542 279.036 96.1951C282.705 98.636 285.15 98.636 297.378 98.636C299.824 98.636 299.824 99.8565 296.156 99.8565C293.71 99.8565 294.933 101.077 299.824 102.297C305.938 103.518 310.829 105.959 316.943 110.841C323.057 114.502 325.503 118.164 326.725 125.486C329.171 131.589 327.948 134.03 326.725 127.927C324.28 120.604 323.057 118.164 320.612 116.943C319.389 115.723 318.166 115.723 318.166 115.723C318.166 116.943 316.943 115.723 315.72 114.502C310.829 112.061 305.938 110.841 303.492 112.061C302.27 112.061 301.047 113.282 301.047 114.502V115.723C301.047 116.943 299.824 118.164 299.824 118.164C298.601 119.384 298.601 120.604 299.824 125.486V126.707C297.378 126.707 297.378 126.707 302.27 131.589C302.27 132.809 303.492 134.03 304.715 136.471C305.938 138.911 309.606 146.234 310.829 147.455C312.052 148.675 312.052 147.455 312.052 145.014L310.829 140.132C312.052 141.352 313.275 145.014 315.72 152.337L316.943 155.998V147.455L318.166 153.557C320.611 163.321 323.057 168.203 329.171 173.085C332.839 175.526 335.285 179.187 336.508 184.069C336.508 185.289 336.508 185.289 335.285 182.848C331.617 176.746 329.171 174.305 329.171 176.746C329.171 177.966 337.731 192.612 340.176 193.833C342.622 196.274 345.067 199.935 345.067 201.155C345.067 201.155 343.845 199.935 342.622 199.935C340.176 197.494 338.953 197.494 341.399 199.935C341.399 201.155 342.622 202.376 342.622 202.376C342.622 203.596 345.067 206.037 346.29 206.037C347.513 206.037 346.29 195.053 343.845 188.951C342.622 185.289 342.622 185.289 343.845 185.289C343.845 186.51 345.067 188.951 346.29 191.392C348.736 196.274 349.959 195.053 347.513 190.171C347.513 187.73 346.29 185.289 346.29 184.069C345.067 177.966 341.399 171.864 335.285 166.982L330.394 162.1L334.062 164.541C338.953 166.982 343.845 171.864 347.513 179.187C348.736 181.628 349.959 184.069 351.181 184.069C351.181 185.289 352.404 186.51 353.627 188.951C356.073 192.612 363.409 215.801 367.078 225.565C368.301 231.667 370.746 235.328 376.86 241.431C381.751 245.092 384.197 248.754 386.643 252.415C387.865 256.076 390.311 258.517 390.311 259.738C391.534 260.958 392.757 260.958 392.757 262.179C392.757 263.399 398.871 268.281 404.984 270.722C412.321 273.163 426.995 274.384 433.109 273.163C438 271.943 439.223 273.163 436.777 274.384C428.218 276.824 423.326 278.045 413.544 276.824C401.316 276.824 392.757 278.045 392.757 279.265C393.979 279.265 398.871 280.486 404.984 280.486L414.767 281.706H400.093C390.311 281.706 382.974 281.706 374.415 280.486C357.295 278.045 359.741 278.045 359.741 284.147C359.741 286.588 358.518 289.029 358.518 289.029C358.518 289.029 357.295 287.809 357.295 284.147V279.265C356.073 279.265 356.073 285.368 356.073 307.336C356.073 337.848 354.85 340.289 353.627 313.438C353.627 296.352 352.404 295.131 348.736 282.927C348.736 279.265 347.513 278.045 345.067 276.824C342.622 276.824 337.731 275.604 331.617 275.604H320.612C319.389 275.604 315.72 276.824 312.052 276.824L304.715 278.045L305.938 292.691C307.161 319.541 305.938 390.328 304.715 404.974C303.492 411.076 303.492 424.501 303.492 439.147C303.492 452.572 302.27 468.438 302.27 474.54L301.047 485.524V478.202C301.047 469.658 302.27 425.722 303.492 407.415V370.8C302.27 365.919 302.27 358.596 303.492 354.934C305.938 326.864 305.938 313.438 302.27 297.572C301.047 291.47 301.047 287.809 301.047 282.927V276.824L296.156 278.045C292.487 278.045 282.705 281.706 280.259 284.147C279.036 285.368 279.036 287.809 279.036 301.234C279.036 318.32 277.814 318.32 276.591 298.793V287.809L274.145 289.029C272.922 290.25 269.254 291.47 266.808 292.691C258.249 293.911 258.249 295.131 261.917 301.234C264.363 306.116 264.363 306.116 261.917 304.895C260.694 303.675 259.472 302.454 259.472 301.234C257.026 297.572 257.026 298.793 258.249 307.336C259.472 314.659 259.472 321.982 258.249 320.761C258.249 320.761 257.026 319.541 257.026 318.32V314.659C255.803 314.659 255.803 313.438 254.581 310.998C254.581 309.777 253.358 307.336 252.135 306.116C250.912 302.454 249.689 304.895 249.689 310.998C250.912 317.1 250.912 317.1 252.135 315.879C254.58 315.879 254.58 315.879 252.135 318.32C250.912 320.761 250.912 323.202 250.912 330.525C250.912 336.627 250.912 340.289 252.135 340.289C252.135 340.289 253.358 340.289 253.358 339.068C257.026 337.848 258.249 337.848 255.803 340.289L253.358 343.95C253.358 346.391 255.803 350.053 257.026 352.493C258.249 352.493 258.249 353.714 258.249 353.714C258.249 353.714 257.026 352.493 255.803 352.493C254.581 351.273 254.581 351.273 254.581 356.155C254.581 359.816 254.58 363.478 257.026 369.58L259.472 379.344C259.472 381.785 259.472 381.785 258.249 378.123C257.026 374.462 255.803 374.462 257.026 378.123C257.026 381.785 257.026 396.43 255.803 400.092C254.581 402.533 254.581 402.533 254.581 396.43C254.581 390.328 252.135 381.785 250.912 383.005C249.689 383.005 249.689 383.005 249.689 380.564C249.689 378.123 248.467 375.682 246.021 375.682C244.798 376.903 244.798 378.123 246.021 393.989C246.021 402.533 247.244 408.635 248.467 414.737L250.912 425.722C250.912 425.722 249.689 424.501 249.689 422.06C248.467 420.84 248.467 418.399 247.244 418.399C247.244 418.399 247.244 420.84 249.689 428.163C253.358 440.367 257.026 452.572 257.026 455.013V461.115C258.249 462.336 258.249 465.997 259.472 468.438C259.472 470.879 260.694 474.54 261.917 476.981C263.14 481.863 264.363 481.863 268.031 484.304C274.145 486.745 274.145 487.965 269.254 487.965H266.808L271.7 494.068C275.368 497.729 277.814 502.611 280.259 508.713C285.15 516.036 288.819 528.241 287.596 529.461L285.15 523.359C282.705 518.477 276.591 508.713 274.145 507.493V508.713C274.145 512.375 272.922 512.375 271.7 509.934C271.7 508.713 271.7 507.493 270.477 507.493C268.031 508.713 269.254 514.816 271.7 519.698L276.591 528.241C280.259 533.123 283.928 539.225 290.042 546.548C291.264 548.989 294.933 552.65 298.601 553.871C304.715 558.753 308.384 562.414 308.384 563.634C308.384 563.634 305.938 562.414 303.492 559.973C298.601 556.312 297.378 556.312 298.601 557.532C299.824 559.973 298.601 559.973 297.378 557.532H294.933C293.71 557.532 293.71 558.753 296.156 562.414L301.047 568.516L305.938 575.839C307.161 577.06 309.606 580.721 312.052 581.942C315.72 584.382 316.943 585.603 314.498 584.382C313.275 584.382 314.498 585.603 315.72 588.044C324.28 597.808 349.959 608.792 367.078 610.012C374.415 611.233 374.415 611.233 370.746 611.233C368.301 612.453 365.855 612.453 364.632 612.453C363.409 611.233 358.518 611.233 353.627 611.233C349.959 610.012 346.29 610.012 345.067 608.792L327.948 603.91C327.948 603.91 327.948 605.13 330.394 606.351C331.617 607.571 331.617 608.792 331.617 608.792C330.394 608.792 326.725 605.13 320.612 600.249L313.275 596.587C310.829 595.367 310.829 595.367 310.829 596.587C310.829 596.587 309.606 596.587 308.384 594.146C304.715 591.705 297.378 586.823 293.71 585.603C292.487 585.603 290.042 584.382 290.042 584.382C287.596 581.942 288.819 584.382 292.487 589.264C296.156 594.146 296.156 594.146 291.264 590.485C290.042 588.044 286.373 584.382 283.928 578.28C279.036 570.957 277.814 568.516 271.7 562.414C269.254 558.753 265.586 555.091 264.363 553.871L261.917 551.43V553.871C261.917 556.312 263.14 558.753 264.363 561.194C265.586 564.855 265.586 566.075 264.363 563.634L261.917 561.194L263.14 563.634C263.14 566.075 265.586 569.737 268.031 572.178C270.477 577.06 268.031 575.839 264.363 570.957C263.14 568.516 260.694 566.075 260.694 563.634C258.249 559.973 253.358 550.209 253.358 550.209V557.532C252.135 558.753 252.135 558.753 252.135 555.091C250.912 550.209 248.467 545.327 243.575 540.446L238.684 535.564L237.461 545.327V555.091C238.684 558.753 242.353 623.437 241.13 624.658V623.437C241.13 623.437 239.907 614.894 239.907 606.351C238.684 597.808 237.461 584.382 237.461 575.839C237.461 567.296 236.239 556.312 235.016 550.209C235.016 544.107 233.793 538.005 233.793 535.564C232.57 530.682 232.57 530.682 228.902 528.241C226.456 527.02 224.011 524.579 221.565 524.579C219.119 523.359 216.674 523.359 215.451 522.139C214.228 522.139 214.228 520.918 217.897 522.139C221.565 522.139 220.342 520.918 214.228 519.698C209.337 518.477 204.446 513.595 195.886 506.272C199.555 507.493 209.337 512.375 210.56 512.375L209.337 511.154C209.337 511.154 210.56 509.934 214.228 509.934C219.119 509.934 219.119 509.934 219.119 508.713C219.119 507.493 220.342 506.272 220.342 503.832C220.342 501.391 220.342 497.729 217.897 487.965C215.451 476.981 213.005 468.438 210.56 453.792C208.114 442.808 204.446 430.603 203.223 429.383C200.777 424.501 197.109 417.178 200.777 422.06C202 424.501 202 422.06 200.777 415.958C197.109 407.415 197.109 407.415 192.218 408.635C188.549 409.855 187.327 408.635 189.772 407.415C188.549 407.415 184.881 408.635 182.436 409.855C173.876 412.296 160.425 414.737 155.534 413.517C148.197 413.517 149.42 412.296 155.534 412.296C161.648 412.296 162.871 412.296 170.208 408.635C178.767 404.974 182.436 402.533 188.549 396.43L192.218 392.769L188.549 395.21C184.881 396.43 183.658 396.43 188.549 393.989C193.441 390.328 199.555 383.005 203.223 378.123C205.669 373.241 206.891 370.8 208.114 363.478C210.56 352.493 210.56 345.171 209.337 346.391C208.114 346.391 208.114 346.391 210.56 340.289C211.783 334.186 211.783 331.745 209.337 337.848C208.114 342.73 205.669 345.171 206.891 341.509C208.114 336.627 208.114 324.423 208.114 318.32C206.891 302.454 202 281.706 197.109 274.384C193.441 267.061 190.995 265.84 186.104 263.399L183.658 260.958H189.772L186.104 257.297L182.436 254.856C181.213 254.856 181.213 259.738 181.213 265.84C181.213 275.604 178.767 303.675 177.544 308.557C177.544 310.998 177.544 300.013 176.322 285.368C176.322 260.958 176.322 258.517 173.876 257.297C172.653 256.076 172.653 256.076 171.43 256.076H168.985C168.985 254.856 168.985 252.415 167.762 251.195L166.539 247.533L157.98 245.092L145.752 242.651C143.306 241.431 142.083 241.431 140.86 240.21C139.638 238.99 137.192 237.769 134.746 236.549C132.301 236.549 131.078 234.108 129.855 232.888C128.632 231.667 128.632 231.667 133.524 234.108C138.415 236.549 146.974 238.99 149.42 238.99C150.643 238.99 151.866 237.769 153.088 236.549C153.088 234.108 150.643 231.667 145.752 229.226C143.306 228.006 140.86 225.565 142.083 225.565C142.083 224.344 134.746 220.683 127.41 217.021C120.073 212.14 111.513 207.258 109.068 204.817L104.177 201.155C96.8397 197.494 100.508 198.714 107.845 202.376L115.182 204.817C116.404 204.817 115.182 202.376 112.736 198.714C107.845 193.833 96.8397 173.085 94.3942 163.321C91.9486 155.998 90.7258 151.116 93.1714 154.778ZM175.099 59.5811C177.544 60.8015 177.544 60.8015 176.322 59.5811C176.322 58.3606 175.099 58.3606 173.876 58.3606L175.099 59.5811ZM175.099 393.989C175.099 391.548 176.322 391.548 176.322 392.769V395.21C176.322 396.43 175.099 396.43 175.099 393.989ZM182.436 223.124C182.436 223.124 182.436 224.344 183.658 224.344V223.124C183.658 223.124 183.658 221.903 182.436 221.903V223.124ZM183.658 219.462C184.881 220.683 186.104 221.903 186.104 220.683C186.104 219.462 186.104 219.462 184.881 219.462C183.658 218.242 183.658 218.242 183.658 219.462ZM186.104 71.7857L190.995 76.6676V75.4472C189.772 74.2267 187.327 71.7857 186.104 71.7857ZM190.995 256.076C192.218 257.297 193.441 257.297 192.218 256.076C192.218 254.856 192.218 254.856 190.995 254.856V256.076ZM192.218 54.6992C192.218 54.6992 200.777 62.022 202 62.022C202 62.022 202 60.8015 200.777 59.5811C198.332 57.1401 193.441 53.4787 192.218 54.6992ZM203.223 407.415C203.223 407.415 203.223 408.635 204.446 408.635V406.194C203.223 406.194 203.223 407.415 203.223 407.415ZM203.223 259.738C203.223 259.738 205.669 263.399 206.891 263.399V262.179C206.891 260.958 204.446 258.517 203.223 259.738ZM204.446 413.517C204.446 414.737 204.446 419.619 205.669 423.281C206.891 426.942 209.337 434.265 210.56 440.367C213.005 448.91 216.674 461.115 217.897 463.556C217.897 464.777 219.119 464.777 219.119 464.777C219.119 464.777 219.119 459.895 217.897 456.233C216.674 451.351 215.451 442.808 215.451 436.706C213.005 425.722 211.783 418.399 211.783 417.178C211.783 417.178 210.56 417.178 210.56 418.399C208.114 419.619 208.114 418.399 209.337 415.958C210.56 414.737 208.114 409.855 205.669 409.855C204.446 409.855 203.223 411.076 204.446 413.517ZM205.669 273.163C206.891 275.604 209.337 279.265 209.337 281.706C211.783 284.147 211.783 284.147 211.783 280.486C210.56 275.604 206.891 265.84 205.669 263.399C200.777 258.517 200.777 264.62 205.669 273.163ZM206.891 220.683C204.446 220.683 208.114 223.124 213.005 225.565C219.119 229.226 221.565 229.226 217.897 226.785L213.005 223.124C209.337 221.903 209.337 220.683 209.337 220.683C209.337 219.462 209.337 219.462 208.114 219.462L206.891 220.683ZM208.114 369.58C208.114 369.58 208.114 370.8 209.337 370.8V368.36C209.337 368.36 209.337 369.58 208.114 369.58ZM211.783 69.3448C211.783 69.3448 211.783 68.1243 210.56 68.1243C209.337 66.9039 209.337 66.9039 210.56 68.1243L211.783 69.3448ZM215.451 170.644C215.451 170.644 215.451 173.085 216.674 173.085H217.897C219.119 171.864 216.674 169.423 215.451 170.644ZM215.451 135.25C214.228 136.471 216.674 146.234 217.897 146.234V142.573C217.897 136.471 216.674 135.25 215.451 135.25ZM224.011 228.006C225.233 229.226 226.456 229.226 226.456 229.226C227.679 229.226 226.456 229.226 225.233 228.006C225.233 226.785 224.011 226.785 222.788 226.785L224.011 228.006ZM230.125 98.636C228.902 98.636 230.125 99.8565 232.57 101.077L239.907 110.841C243.575 116.943 247.244 120.604 248.467 121.825V120.604C239.907 108.4 231.347 96.1951 230.125 98.636ZM233.793 231.667C233.793 232.888 235.016 232.888 235.016 232.888H236.239C236.239 231.667 235.016 231.667 235.016 231.667H233.793ZM237.461 112.061C238.684 114.502 247.244 124.266 248.467 124.266C242.353 115.723 238.684 110.841 237.461 110.841V112.061ZM243.575 368.36L244.798 369.58V368.36C244.798 367.139 244.798 367.139 243.575 367.139V368.36ZM248.467 330.525C249.689 329.305 249.689 329.305 249.689 328.084C249.689 328.084 249.689 326.864 248.467 328.084V330.525ZM249.689 232.888C249.689 234.108 265.586 241.431 266.808 241.431C268.031 241.431 268.031 241.431 266.808 240.21L265.586 238.99C264.363 238.99 263.14 237.769 260.694 236.549C258.249 235.328 249.689 231.667 249.689 232.888ZM252.135 219.462C254.58 221.903 269.254 231.667 272.922 232.888C275.368 234.108 285.15 235.328 286.373 234.108L282.705 231.667C280.259 230.447 277.814 228.006 277.814 228.006C276.591 226.785 277.814 228.006 285.15 230.447C291.264 232.888 313.275 235.328 315.72 232.888C316.943 231.667 304.715 215.801 298.601 209.699L293.71 204.817V203.596C292.487 203.596 292.487 206.037 292.487 210.919C292.487 215.801 292.487 219.462 291.264 219.462C291.264 218.242 291.264 213.36 290.042 206.037C290.042 192.612 288.819 184.069 286.373 181.628C285.15 180.407 279.036 176.746 276.591 176.746H275.368C275.368 175.526 282.705 175.526 283.928 176.746H285.15C285.15 175.526 283.928 173.085 281.482 173.085C280.259 171.864 279.036 170.644 277.814 168.203C274.145 163.321 272.922 163.321 275.368 168.203C275.368 169.423 275.368 169.423 274.145 168.203C272.922 166.982 272.922 165.762 272.922 164.541C272.922 163.321 253.358 130.368 252.135 130.368C250.912 130.368 253.358 135.25 259.472 143.793C264.363 152.337 270.477 164.541 270.477 165.762C270.477 168.203 271.7 177.966 274.145 186.51C275.368 191.392 275.368 195.053 275.368 195.053C275.368 197.494 272.922 191.392 271.7 185.289C270.477 179.187 265.586 166.982 264.363 163.321C263.14 160.88 260.694 162.1 259.472 165.762C258.249 168.203 257.026 169.423 258.249 169.423C258.249 170.644 259.472 169.423 260.694 169.423C263.14 166.982 263.14 168.203 260.694 170.644C259.472 173.085 259.472 174.305 259.472 179.187C259.472 182.848 259.472 190.171 260.694 193.833C260.694 197.494 261.917 201.155 260.694 201.155L258.249 192.612C255.803 185.289 254.581 184.069 254.581 187.73C254.581 188.951 253.358 190.171 253.358 190.171C252.135 191.392 254.58 208.478 257.026 212.14C258.249 213.36 258.249 214.581 257.026 214.581L259.472 218.242L263.14 220.683L259.472 219.462L255.803 215.801C255.803 215.801 254.58 215.801 253.358 214.581C252.135 214.581 252.135 214.581 252.135 217.021V219.462ZM253.358 85.2109C254.58 86.4314 254.581 86.4314 255.803 86.4314L253.358 83.9904V85.2109ZM254.581 278.045C254.581 279.265 254.581 279.265 255.803 278.045C255.803 276.824 257.026 276.824 257.026 275.604C255.803 275.604 254.581 276.824 254.581 278.045ZM255.803 165.762C255.803 166.982 255.803 166.982 257.026 166.982V164.541L255.803 165.762ZM258.249 282.927C258.249 286.588 259.472 292.691 259.472 292.691C259.472 292.691 261.917 292.691 263.14 290.25L268.031 287.809C269.254 287.809 270.477 287.809 270.477 286.588C272.922 285.368 272.922 284.147 271.7 281.706C271.7 276.824 269.254 274.384 265.586 274.384C263.14 274.384 261.917 275.604 260.694 278.045C259.472 279.265 258.249 281.706 258.249 282.927ZM261.917 506.272L263.14 507.493L264.363 506.272C264.363 507.493 265.586 509.934 266.808 509.934V508.713C265.586 506.272 265.586 505.052 264.363 506.272C264.363 505.052 263.14 503.832 263.14 503.832C263.14 503.832 261.917 505.052 261.917 506.272ZM265.586 236.549C261.917 235.328 268.031 238.99 272.922 240.21C276.591 242.651 281.482 242.651 280.259 241.431C280.259 241.431 275.368 240.21 265.586 236.549ZM266.808 503.832C266.808 505.052 268.031 505.052 268.031 505.052C269.254 505.052 269.254 505.052 269.254 503.832H266.808ZM270.477 96.1951C272.922 97.4156 280.259 102.297 281.482 102.297C282.705 102.297 282.705 101.077 281.482 101.077L270.477 94.9747V96.1951ZM286.373 174.305L287.596 175.526V174.305C286.373 173.085 286.373 173.085 286.373 174.305ZM292.487 198.714C293.71 201.155 293.71 202.376 296.156 204.817C298.601 206.037 301.047 206.037 302.27 206.037C303.492 206.037 303.492 206.037 303.492 204.817C302.27 202.376 298.601 195.053 297.378 195.053C297.378 193.833 296.156 193.833 294.933 193.833L293.71 192.612C292.487 191.392 292.487 192.612 292.487 198.714ZM296.156 131.589C296.156 134.03 299.824 134.03 299.824 131.589C299.824 131.589 298.601 130.368 298.601 129.148C296.156 127.927 294.933 129.148 296.156 131.589ZM298.601 241.431C302.27 242.651 313.275 242.651 315.72 240.21C318.166 237.769 316.943 237.769 313.275 238.99C310.829 238.99 305.938 240.21 302.27 240.21C298.601 240.21 297.378 240.21 298.601 241.431ZM304.715 204.817C304.715 206.037 304.715 207.258 305.938 206.037C305.938 206.037 305.938 204.817 304.715 204.817ZM312.052 224.344C313.275 226.785 315.72 229.226 315.72 228.006L313.275 223.124L309.606 219.462L312.052 224.344ZM314.498 242.651C314.498 243.872 315.72 243.872 318.166 242.651C319.389 241.431 320.612 241.431 319.389 241.431C319.389 240.21 314.498 241.431 314.498 242.651ZM374.415 243.872C374.415 245.092 381.751 251.195 382.974 252.415C382.974 252.415 382.974 251.195 381.751 249.974C381.751 248.754 375.637 243.872 374.415 243.872Z" fill="white"/>
</svg>
